<?xml version="1.0" ?><!DOCTYPE svg  PUBLIC '-//W3C//DTD SVG 1.1//EN'  'http://www.w3.org/Graphics/SVG/1.1/DTD/svg11.dtd'><svg xmlns="http://www.w3.org/2000/svg" xmlns:xlink="http://www.w3.org/1999/xlink" xmlns:serif="http://www.serif.com/" width="100%" height="100%" viewBox="0 0 512 512" version="1.1" xml:space="preserve" style="fill-rule:evenodd;clip-rule:evenodd;stroke-linejoin:round;stroke-miterlimit:2;"><g transform="matrix(1,0,0,1,-1686,-1124)"><g id="Icons"><path d="M1943.97,1407.54C1948.6,1417.16 1952.26,1427.28 1955.7,1437.32C1957.82,1443.52 1958.92,1450.05 1961.62,1456.05C1965.29,1464.2 1970.8,1471.37 1974.3,1479.63C1976.98,1485.99 1978.15,1492.83 1979.79,1499.5C1980.74,1503.38 1982.56,1508.75 1982.67,1513.12C1982.1,1513.39 1981.56,1513.66 1981.44,1513.73C1978.33,1515.55 1975.26,1517.45 1972.32,1519.54C1971.99,1519.77 1970.34,1520.84 1969.47,1521.59C1968.92,1522.07 1968.53,1522.55 1968.31,1522.89C1967.58,1524.03 1967.55,1525.1 1967.67,1525.86C1967.83,1526.84 1968.51,1528.32 1970.33,1529.37C1972.2,1530.46 1976.71,1531.64 1977.76,1531.93C1983.97,1533.65 1990.29,1534.19 1996.7,1534.25C1999.26,1534.27 2002.58,1534.51 2005.04,1533.67C2005.71,1533.44 2007,1532.86 2007.59,1531.06C2007.77,1530.5 2007.96,1528 2007.97,1527.78C2008.14,1525.41 2008.05,1523.02 2007.95,1520.65C2007.52,1510.06 2004.87,1500.68 2001.54,1490.69C1998.13,1480.46 1994.15,1469.82 1992.27,1459.18C1990.62,1449.88 1991.04,1440.08 1988.06,1431.04C1981.91,1412.36 1970.39,1393.04 1969.51,1372.81C1973.91,1371.74 1978.33,1370.98 1982.27,1370.25C2003.03,1366.42 2024.49,1363.59 2044.92,1358.22C2056.3,1355.23 2064.82,1349.49 2074.14,1342.56C2076.3,1340.95 2078.92,1338.72 2081.73,1336.91C2082.55,1336.39 2083.38,1335.89 2084.22,1335.47C2084.04,1342.3 2084.71,1349.26 2084.65,1356.02C2084.59,1363.45 2084.35,1371.18 2086.37,1378.41C2088.85,1387.3 2094.39,1394.8 2097.77,1403.32C2103.95,1418.91 2107.59,1438.88 2104.04,1455.42C2101.69,1466.32 2096.96,1475.23 2091.87,1484.92C2087.49,1493.28 2082.98,1501.93 2077.77,1509.81C2076.46,1511.79 2074.48,1513.08 2072.41,1514.28C2069.7,1515.84 2066.81,1517.2 2064.36,1518.88C2064.05,1519.1 2062.09,1520.52 2060.76,1521.71C2059.77,1522.6 2059.08,1523.49 2058.8,1524.03C2058.03,1525.55 2058.28,1526.84 2058.67,1527.72C2058.96,1528.38 2059.53,1529.22 2060.7,1529.79C2061.43,1530.14 2064.35,1530.46 2064.84,1530.52C2068.07,1530.91 2071.31,1531.16 2074.56,1531.35C2079.31,1531.62 2084.07,1531.75 2088.82,1531.83C2090.88,1531.87 2094.01,1532.42 2095.97,1531.88C2096.66,1531.68 2097.56,1531.23 2098.35,1530.31C2099.12,1529.43 2100.06,1527.5 2100.37,1526.94C2102.21,1523.6 2103.74,1520.12 2105.27,1516.63C2111.43,1502.6 2117.45,1488.59 2125.03,1475.24C2129.53,1467.31 2136.31,1459.19 2138.27,1450.15C2139.68,1443.64 2137.76,1437.08 2136.9,1430.65C2136.12,1424.81 2135.22,1418.43 2134.97,1412.18C2145.71,1427.47 2155.49,1447.95 2154.04,1465.09C2153.28,1474.06 2149.52,1481.77 2149.32,1490.79C2149.14,1498.71 2150.18,1508.31 2146.99,1515.75C2144.68,1521.14 2141.77,1525.49 2137.53,1529.17C2135.96,1530.52 2134.39,1531.85 2132.89,1533.28C2132.39,1533.77 2131.13,1534.48 2130.57,1534.98C2129.75,1535.73 2129.36,1536.53 2129.18,1537.08C2128.77,1538.36 2128.99,1539.5 2129.58,1540.47C2130.01,1541.19 2130.8,1542.16 2132.55,1542.47C2139.46,1543.69 2148.58,1541.9 2155.5,1541.31C2156.05,1541.27 2161.24,1540.95 2162.28,1540.77C2165.29,1540.25 2165.7,1537.66 2165.75,1537.23C2167.93,1518.26 2170.43,1499.71 2175.74,1481.13C2177.43,1475.19 2180.77,1468.26 2183.12,1461.43C2184.87,1456.37 2186.08,1451.34 2186,1446.74C2185.81,1435.85 2178.95,1425.71 2174.33,1416.21C2167.25,1401.63 2161.35,1386.9 2155.49,1371.8C2149.42,1356.16 2147.57,1338.83 2145.69,1322.26C2144.74,1313.82 2145.11,1304.31 2141.84,1296.34C2139.97,1291.78 2136.82,1288.09 2133.32,1284.64C2130.31,1281.68 2127.02,1278.91 2124.39,1275.71C2119.57,1269.85 2115.57,1263.67 2108.78,1259.92C2100.54,1255.36 2091.48,1253.26 2082.3,1251.45C2073.8,1249.77 2065.21,1248.35 2057.24,1245.01C2048.11,1241.18 2040.65,1233.51 2032.57,1227.39C2023.33,1220.4 2013.4,1215.3 2000.39,1217.67C1991.64,1219.27 1983.99,1223.04 1976.53,1227.2C1969.63,1231.06 1962.88,1235.26 1955.39,1238.03C1947.49,1240.95 1939.54,1241.93 1931.8,1243.55C1923.31,1245.32 1915.06,1247.83 1907.28,1253.75C1901.16,1258.4 1897.63,1265.1 1892.57,1270.72C1882.42,1282.01 1864.05,1297.35 1848.37,1298.87C1838.35,1299.85 1830.31,1294.99 1823.64,1287.84C1812.62,1276.03 1805.28,1258.07 1799.8,1245.98C1796.68,1239.08 1793.78,1230.36 1788.2,1224.96C1783.45,1220.35 1777.23,1219.43 1770.49,1220.2C1766.25,1220.68 1761.79,1221.83 1757.49,1222.76C1753.79,1223.57 1750.24,1224.25 1747.16,1223.9C1739.51,1223.04 1732.07,1220.61 1725.29,1220.35C1717.26,1220.06 1710,1222.34 1704.06,1231.74C1702.26,1234.59 1699.57,1240.18 1698.3,1243.3C1697.75,1244.64 1697.97,1246.17 1698.87,1247.3C1700.86,1249.81 1703.89,1251.77 1707.33,1253.31C1711.58,1255.2 1716.46,1256.46 1719.83,1257.82C1727.07,1260.75 1733.28,1265.72 1740.13,1269.37C1745.49,1272.22 1751.34,1273.6 1756.13,1277.55C1764.15,1284.16 1768.69,1293.46 1773,1302.97C1777.72,1313.39 1782.15,1324.09 1789.5,1332.54C1797.72,1342 1811.21,1346.12 1822.52,1350.5C1839.89,1357.23 1860.19,1352.73 1878.05,1351.29C1882.65,1350.92 1888.19,1349.23 1892.76,1350.3C1893.69,1350.52 1894.65,1351.47 1895.67,1352.35C1897.39,1353.83 1899.09,1355.42 1900.49,1356.33C1901.77,1357.16 1903.33,1357.98 1904.77,1358.92C1905.7,1359.53 1906.61,1360.17 1907.14,1361.05C1908.88,1363.95 1909.63,1367.46 1910.25,1371.03C1910.99,1375.28 1911.52,1379.62 1912.7,1383.47C1915.73,1393.33 1919.48,1402.49 1920.61,1412.86C1921.7,1422.95 1920.34,1433 1920.97,1443.09C1921.6,1453.28 1918.09,1464.13 1917.92,1474.43C1917.83,1479.81 1918.34,1486.3 1918.27,1492.66C1918.21,1498.39 1917.73,1504.03 1915.56,1508.42C1912.62,1514.38 1908.57,1516.13 1904.49,1518.36C1900.93,1520.3 1897.32,1522.49 1893.95,1526.59C1892.76,1528.03 1892.8,1529.31 1892.94,1530.15C1893.14,1531.33 1893.76,1532.37 1895,1533.08C1895.52,1533.38 1896.4,1533.7 1897.59,1533.7C1898.66,1533.7 1900.68,1533.26 1901.67,1533.28C1904.46,1533.32 1907.26,1533.37 1910.05,1533.43C1916.14,1533.56 1922.23,1533.88 1928.33,1533.76C1928.82,1533.75 1933.51,1533.75 1934.46,1533.63C1937.48,1533.26 1938,1530.71 1938.08,1530.22C1940.42,1514.83 1940,1498.95 1941.37,1483.46C1943.1,1463.84 1946.33,1445.76 1945.43,1425.95C1945.19,1420.57 1944.32,1414.1 1943.97,1407.54ZM2096.49,1328.69C2100.54,1331.68 2101.71,1337.23 2102.96,1343.35C2104.51,1351.01 2106.27,1358.97 2109.51,1366.11C2115.52,1379.38 2125.4,1387.52 2134.48,1398.39C2148.54,1415.2 2163.92,1443.24 2162.01,1465.77C2161.27,1474.57 2157.52,1482.13 2157.32,1490.97C2157.11,1499.84 2157.91,1510.57 2154.34,1518.91C2151.64,1525.21 2148.22,1530.32 2143.36,1534.68C2147.34,1534.31 2151.38,1533.64 2154.82,1533.34C2155.07,1533.32 2156.68,1533.2 2158.18,1533.09C2160.33,1514.81 2162.92,1496.89 2168.04,1478.93C2169.5,1473.84 2172.11,1468.02 2174.34,1462.16C2176.34,1456.91 2178.08,1451.63 2178,1446.87C2177.83,1437.13 2171.27,1428.22 2167.14,1419.71C2159.95,1404.93 2153.97,1390 2148.03,1374.7C2141.71,1358.42 2139.69,1340.4 2137.74,1323.16C2136.87,1315.42 2137.43,1306.68 2134.44,1299.37C2132.98,1295.83 2130.43,1293.03 2127.71,1290.35C2124.5,1287.19 2121.02,1284.21 2118.21,1280.79C2114.04,1275.72 2110.78,1270.17 2104.91,1266.92C2097.4,1262.77 2089.11,1260.95 2080.76,1259.3C2071.72,1257.52 2062.62,1255.93 2054.15,1252.38C2044.42,1248.3 2036.35,1240.29 2027.74,1233.76C2020.27,1228.11 2012.35,1223.62 2001.83,1225.54C1993.97,1226.98 1987.13,1230.45 1980.43,1234.19C1973.16,1238.24 1966.05,1242.62 1958.17,1245.53C1949.88,1248.6 1941.55,1249.68 1933.44,1251.38C1926.07,1252.92 1918.87,1254.99 1912.12,1260.12C1906.4,1264.46 1903.24,1270.82 1898.52,1276.07C1887.25,1288.6 1866.55,1305.14 1849.14,1306.84C1836.51,1308.07 1826.2,1302.32 1817.79,1293.3C1806.18,1280.85 1798.29,1262.02 1792.52,1249.28C1789.78,1243.23 1787.52,1235.44 1782.63,1230.7C1778.73,1226.92 1773.19,1227.67 1767.53,1228.76C1760.09,1230.18 1752.38,1232.55 1746.26,1231.85C1740.19,1231.16 1734.25,1229.47 1728.67,1228.69C1721.88,1227.74 1715.68,1228.32 1710.82,1236.01C1709.62,1237.91 1707.98,1241.19 1706.76,1243.88L1706.76,1243.88C1708.37,1245.1 1710.44,1246 1712.55,1246.81C1716.2,1248.23 1720.04,1249.28 1722.83,1250.41C1730.33,1253.44 1736.8,1258.53 1743.89,1262.31C1749.73,1265.42 1756.01,1267.08 1761.22,1271.37C1770.18,1278.77 1775.47,1289.03 1780.28,1299.67C1784.69,1309.38 1788.69,1319.41 1795.54,1327.29C1802.92,1335.79 1815.25,1339.11 1825.41,1343.04C1841.68,1349.34 1860.68,1344.66 1877.41,1343.32C1882.78,1342.89 1889.25,1341.26 1894.59,1342.51C1896.21,1342.89 1898.05,1343.97 1899.84,1345.41C1901.62,1346.85 1903.4,1348.68 1904.85,1349.62C1907.89,1351.6 1912.05,1353.69 1914,1356.92C1916.23,1360.64 1917.33,1365.08 1918.13,1369.66C1918.81,1373.57 1919.26,1377.58 1920.35,1381.13C1923.52,1391.47 1927.38,1401.11 1928.56,1411.99C1929.67,1422.2 1928.32,1432.38 1928.95,1442.59C1929.6,1452.98 1926.09,1464.06 1925.92,1474.57C1925.81,1481.05 1926.57,1489.15 1926.14,1496.72C1925.84,1502.3 1924.88,1507.61 1922.73,1511.96C1919.42,1518.67 1915.21,1521.58 1910.7,1524.09C1909.9,1524.53 1909.09,1524.95 1908.28,1525.39L1910.22,1525.43C1916.2,1525.56 1922.18,1525.88 1928.16,1525.76L1930.62,1525.73C1932.43,1511.54 1932.14,1496.98 1933.4,1482.76C1935.1,1463.5 1938.32,1445.76 1937.44,1426.31C1937.05,1417.6 1935.11,1406.08 1936.14,1395.83C1936.91,1388.14 1939.33,1381.14 1944.64,1376.09C1945.21,1375.55 1945.81,1375.03 1946.42,1374.54C1947.22,1373.8 1947.99,1373.05 1948.74,1372.28C1950.8,1370.16 1952.69,1368.06 1954.3,1365.67C1957.07,1361.54 1959.12,1357.13 1960.34,1351.99C1960.68,1357.55 1960,1362.66 1958.37,1367.65C1958.33,1367.79 1958.29,1367.92 1958.24,1368.05C1960.02,1367.37 1961.85,1366.77 1963.69,1366.22C1964.11,1366.01 1964.57,1365.88 1965.05,1365.83C1970.45,1364.32 1975.94,1363.29 1980.81,1362.39C2001.38,1358.59 2022.65,1355.8 2042.89,1350.49C2053.23,1347.77 2060.9,1342.43 2069.37,1336.14C2072.16,1334.07 2075.68,1331.05 2079.39,1329C2081.58,1327.78 2083.85,1326.89 2086.11,1326.53C2084.88,1323.92 2083.86,1321.11 2083.06,1318.13C2080.64,1309.17 2080.13,1299.12 2081.5,1290.23C2081.81,1297.45 2083.56,1305.14 2086.34,1312.23C2087.99,1316.45 2090.08,1320.33 2092.43,1323.75C2093.69,1325.58 2095.04,1327.24 2096.49,1328.69ZM1961.65,1375.17C1957.3,1376.78 1953.28,1378.92 1950.15,1381.89L1950.15,1381.89C1947.26,1384.64 1945.64,1388.2 1944.77,1392.15C1952.77,1405.42 1958.28,1420.15 1963.27,1434.74C1965.31,1440.7 1966.32,1446.99 1968.91,1452.77C1972.61,1460.98 1978.15,1468.19 1981.66,1476.51C1984.52,1483.27 1985.82,1490.51 1987.56,1497.59C1988.86,1502.89 1991.2,1510.6 1990.53,1516.05C1990.45,1516.68 1990.2,1517.78 1989.03,1518.74C1988.52,1519.17 1985.75,1520.51 1985.4,1520.68C1983.49,1521.8 1981.59,1522.95 1979.73,1524.17L1979.89,1524.22C1985.43,1525.75 1991.06,1526.2 1996.77,1526.25C1997.76,1526.26 1998.91,1526.39 2000.04,1526.4C2000.11,1524.59 2000.03,1522.78 1999.96,1520.97C1999.56,1511.15 1997.03,1502.48 1993.95,1493.22C1990.42,1482.62 1986.34,1471.59 1984.39,1460.57C1982.8,1451.64 1983.32,1442.23 1980.46,1433.54C1974.3,1414.82 1963.25,1395.39 1961.65,1375.17ZM2092.2,1335.62C2091.99,1342.41 2092.7,1349.36 2092.65,1356.09C2092.59,1362.78 2092.25,1369.75 2094.07,1376.26C2096.48,1384.87 2101.93,1392.11 2105.21,1400.37C2111.93,1417.35 2115.73,1439.1 2111.86,1457.1C2109.36,1468.74 2104.39,1478.29 2098.96,1488.64C2094.45,1497.24 2089.8,1506.12 2084.44,1514.22C2082.45,1517.23 2079.57,1519.38 2076.4,1521.21C2075.19,1521.91 2073.94,1522.56 2072.71,1523.22C2073.48,1523.27 2074.25,1523.32 2075.01,1523.36C2079.66,1523.62 2084.32,1523.75 2088.97,1523.83C2089.92,1523.85 2091.12,1524.02 2092.3,1524.13C2092.46,1524.14 2092.62,1524.16 2092.77,1524.18L2093.36,1523.08C2095.09,1519.95 2096.51,1516.68 2097.95,1513.41C2104.22,1499.13 2110.36,1484.88 2118.07,1471.29C2122.19,1464.03 2128.66,1456.74 2130.45,1448.46C2131.66,1442.86 2129.71,1437.24 2128.97,1431.7C2127.72,1422.37 2126.28,1411.73 2127.24,1402.21C2118,1391.4 2108.31,1382.84 2102.22,1369.42C2098.74,1361.73 2096.79,1353.18 2095.12,1344.95C2094.59,1342.37 2094.21,1339.85 2093.42,1337.75C2093.11,1336.94 2092.76,1336.2 2092.21,1335.63L2092.2,1335.62Z"/></g></g></svg>